<svg width="52" height="52" viewBox="0 0 52 52" fill="none" xmlns="http://www.w3.org/2000/svg">
<rect width="52" height="52" rx="26" fill="#F0C274"/>
<path d="M36.5 17.25H15.5C15.2679 17.25 15.0454 17.3422 14.8813 17.5063C14.7172 17.6704 14.625 17.8929 14.625 18.125V33.875C14.625 34.1071 14.7172 34.3296 14.8813 34.4937C15.0454 34.6578 15.2679 34.75 15.5 34.75H36.5C36.7321 34.75 36.9546 34.6578 37.1187 34.4937C37.2828 34.3296 37.375 34.1071 37.375 33.875V18.125C37.375 17.8929 37.2828 17.6704 37.1187 17.5063C36.9546 17.3422 36.7321 17.25 36.5 17.25ZM21.625 27.75V24.25H30.375V27.75H21.625ZM16.375 27.75V24.25H19.875V27.75H16.375ZM32.125 24.25H35.625V27.75H32.125V24.25ZM35.625 22.5H26.875V19H35.625V22.5ZM25.125 19V22.5H16.375V19H25.125ZM16.375 29.5H25.125V33H16.375V29.5ZM26.875 33V29.5H35.625V33H26.875Z" fill="white"/>
</svg>
