<svg width="52" height="53" viewBox="0 0 52 53" fill="none" xmlns="http://www.w3.org/2000/svg">
<rect y="0.5" width="52" height="52" rx="26" fill="#70A1E6"/>
<path d="M23.32 28.6004C23.2265 28.1419 22.9752 27.7306 22.6097 27.4383C22.2443 27.1459 21.7879 26.991 21.32 27.0004H16.64C16.1721 26.991 15.7157 27.1459 15.3503 27.4383C14.9848 27.7306 14.7335 28.1419 14.64 28.6004L13 37.0004H25L23.32 28.6004ZM37.32 28.6004C37.2265 28.1419 36.9752 27.7306 36.6097 27.4383C36.2443 27.1459 35.7879 26.991 35.32 27.0004H30.64C30.1721 26.991 29.7157 27.1459 29.3503 27.4383C28.9848 27.7306 28.7335 28.1419 28.64 28.6004L27 37.0004H39L37.32 28.6004Z" stroke="white" stroke-width="2" stroke-linecap="round" stroke-linejoin="round"/>
<path d="M32 27.0004L30.32 18.6004C30.2265 18.1419 29.9752 17.7306 29.6097 17.4383C29.2443 17.1459 28.7879 16.991 28.32 17.0004H23.64C23.1721 16.991 22.7157 17.1459 22.3503 17.4383C21.9848 17.7306 21.7335 18.1419 21.64 18.6004L20 27.0004" stroke="white" stroke-width="2" stroke-linecap="round" stroke-linejoin="round"/>
</svg>
