<svg width="54" height="54" viewBox="0 0 54 54" fill="none" xmlns="http://www.w3.org/2000/svg">
<rect width="54" height="54" rx="26" fill="#E89271"/>
<g clip-path="url(#clip0_6_1214)">
<path d="M33.4286 16.6154C33.4286 16.6125 33.4281 16.6097 33.4281 16.6067C33.4279 16.5955 33.4272 16.5845 33.4262 16.5734C33.4257 16.5681 33.4254 16.563 33.4247 16.5578C33.423 16.544 33.4205 16.5303 33.4175 16.5168C33.417 16.5147 33.4168 16.5125 33.4162 16.5104C33.4124 16.494 33.4076 16.478 33.4019 16.462C33.4016 16.461 33.4011 16.46 33.4008 16.459C33.3956 16.4449 33.3896 16.4309 33.383 16.4172C33.3811 16.4132 33.3789 16.4094 33.3769 16.4055C33.3715 16.3952 33.3658 16.3849 33.3595 16.3748C33.3564 16.3699 33.3531 16.3651 33.3498 16.3602C33.3441 16.3518 33.338 16.3434 33.3316 16.3352C33.3274 16.3299 33.3232 16.3247 33.3188 16.3196C33.3159 16.3163 33.3136 16.3129 33.3107 16.3098C33.3068 16.3055 33.3025 16.3018 33.2985 16.2977C33.2939 16.293 33.2894 16.2882 33.2845 16.2838C33.2762 16.2759 33.2674 16.2686 33.2586 16.2614C33.2557 16.2591 33.2532 16.2564 33.2502 16.2541L27.4044 11.7824C27.2413 11.6576 27.0149 11.6576 26.8518 11.7824L21.014 16.2482L21.0061 16.2541C21.0033 16.2563 21.001 16.2588 20.9982 16.261C20.9891 16.2683 20.9802 16.2757 20.9716 16.2839C20.9669 16.2884 20.9623 16.293 20.9578 16.2976C20.9537 16.3018 20.9495 16.3055 20.9455 16.3098C20.9426 16.313 20.9403 16.3165 20.9374 16.3196C20.933 16.3248 20.9288 16.33 20.9246 16.3353C20.9182 16.3435 20.9121 16.3518 20.9064 16.3603C20.9031 16.3652 20.8998 16.3699 20.8967 16.3749C20.8904 16.385 20.8847 16.3952 20.8793 16.4056C20.8773 16.4095 20.8751 16.4133 20.8732 16.4172C20.8665 16.4309 20.8606 16.4449 20.8554 16.4591C20.8551 16.4601 20.8546 16.461 20.8543 16.462C20.8486 16.478 20.8438 16.494 20.84 16.5104C20.8395 16.5126 20.8392 16.5147 20.8387 16.5168C20.8357 16.5304 20.8333 16.5441 20.8315 16.5579C20.8308 16.563 20.8305 16.5682 20.83 16.5734C20.829 16.5845 20.8283 16.5956 20.8281 16.6068C20.8281 16.6097 20.8276 16.6125 20.8276 16.6155V37.3848C20.8276 37.3878 20.8281 37.3906 20.8281 37.3935C20.8283 37.4047 20.829 37.4158 20.83 37.4269C20.8305 37.4321 20.8308 37.4372 20.8315 37.4424C20.8332 37.4562 20.8357 37.4699 20.8387 37.4835C20.8392 37.4856 20.8394 37.4878 20.84 37.4899C20.8438 37.5062 20.8486 37.5223 20.8543 37.5383C20.8546 37.5393 20.8551 37.5402 20.8554 37.5412C20.8606 37.5554 20.8665 37.5693 20.8732 37.583C20.8751 37.5869 20.8773 37.5908 20.8793 37.5947C20.8847 37.605 20.8904 37.6153 20.8967 37.6253C20.8998 37.6303 20.9031 37.6351 20.9064 37.6399C20.9121 37.6484 20.9182 37.6567 20.9246 37.6649C20.9288 37.6703 20.933 37.6755 20.9374 37.6806C20.9403 37.6838 20.9426 37.6873 20.9455 37.6904C20.9492 37.6944 20.9532 37.6978 20.9569 37.7017C20.9621 37.707 20.9674 37.7124 20.973 37.7176C20.9806 37.7247 20.9885 37.7313 20.9964 37.7377C20.9997 37.7404 21.0026 37.7435 21.006 37.7461L26.8518 42.2178C26.9333 42.2802 27.0307 42.3113 27.1281 42.3113C27.2254 42.3113 27.3229 42.2802 27.4044 42.2178L33.25 37.7461C33.2534 37.7435 33.2563 37.7405 33.2597 37.7378C33.2677 37.7313 33.2756 37.7246 33.2832 37.7175C33.2887 37.7124 33.2939 37.7071 33.2992 37.7017C33.303 37.6978 33.307 37.6944 33.3106 37.6903C33.3135 37.6872 33.3159 37.6837 33.3187 37.6805C33.3231 37.6754 33.3274 37.6702 33.3316 37.6649C33.338 37.6567 33.344 37.6484 33.3497 37.6399C33.353 37.635 33.3564 37.6302 33.3594 37.6253C33.3657 37.6152 33.3714 37.6049 33.3768 37.5946C33.3788 37.5907 33.3811 37.5869 33.3829 37.5829C33.3896 37.5692 33.3955 37.5553 33.4007 37.5411C33.4011 37.5401 33.4015 37.5392 33.4019 37.5381C33.4076 37.5222 33.4124 37.5061 33.4162 37.4897C33.4167 37.4877 33.417 37.4854 33.4174 37.4833C33.4205 37.4698 33.4229 37.4561 33.4247 37.4423C33.4253 37.4372 33.4256 37.432 33.4261 37.4268C33.4271 37.4156 33.4278 37.4046 33.428 37.3934C33.4281 37.3905 33.4285 37.3877 33.4285 37.3847L33.4286 16.6154ZM27.1281 12.7162L32.2641 16.6451L29.0344 19.5754H25.2217L21.992 16.6451L27.1281 12.7162ZM28.7552 20.4849V33.5152H25.5009V20.4849H28.7552ZM21.7372 17.6421L24.5913 20.2316V33.7685L21.7372 36.358V17.6421ZM27.1281 41.2839L21.992 37.355L25.2217 34.4248H29.0344L32.2641 37.355L27.1281 41.2839ZM32.5189 36.3581L29.6648 33.7685V20.2316L32.5189 17.6421V36.3581Z" fill="white"/>
</g>
<defs>
<clipPath id="clip0_6_1214">
<rect width="30" height="30" fill="white" transform="translate(12 12)"/>
</clipPath>
</defs>
</svg>
