<svg width="350" height="276" viewBox="0 0 350 276" fill="none" xmlns="http://www.w3.org/2000/svg">
<path d="M316.54 174C319.832 174 322.512 171.33 322.381 168.041C321.679 150.508 317.885 133.221 311.158 116.98C303.67 98.9027 292.695 82.477 278.859 68.6411C265.023 54.8052 248.597 43.8299 230.52 36.3419C212.442 28.854 193.067 25 173.5 25C153.933 25 134.558 28.854 116.48 36.342C98.4026 43.8299 81.977 54.8052 68.1411 68.6411C54.3052 82.477 43.3299 98.9027 35.8419 116.98C29.115 133.221 25.3209 150.508 24.6192 168.041C24.4876 171.33 27.1684 174 30.46 174C33.7516 174 36.4065 171.33 36.5495 168.042C37.2442 152.075 40.7267 136.336 46.8546 121.542C53.7435 104.91 63.8407 89.7989 76.5698 77.0698C89.2989 64.3408 104.41 54.2435 121.042 47.3546C137.673 40.4657 155.498 36.92 173.5 36.92C191.502 36.92 209.327 40.4657 225.958 47.3546C242.59 54.2435 257.701 64.3407 270.43 77.0698C283.159 89.7989 293.257 104.91 300.145 121.542C306.273 136.336 309.756 152.075 310.45 168.042C310.594 171.33 313.248 174 316.54 174Z" fill="black" fill-opacity="0.08"/>
<g filter="url(#filter0_i_7_1852)">
<path d="M101.28 50.5304C99.6182 47.6892 95.9602 46.7231 93.1877 48.4973C73.0096 61.4096 56.2159 79.0151 44.2642 99.8441C32.3124 120.673 25.587 144.056 24.6212 167.992C24.4884 171.281 27.1684 173.952 30.46 173.953C33.7516 173.954 36.4074 171.285 36.5515 167.996C37.5095 146.141 43.6867 124.801 54.603 105.777C65.5193 86.7521 80.8262 70.6506 99.2115 58.7952C101.978 57.0113 102.942 53.3717 101.28 50.5304Z" fill="#1A932E"/>
</g>
<path d="M0.782799 162.289L14.5625 163.273" stroke="#060606" stroke-opacity="0.3" stroke-miterlimit="10"/>
<path d="M1.60611 153.56L15.3203 155.246" stroke="#060606" stroke-opacity="0.3" stroke-miterlimit="10"/>
<path d="M2.87766 144.884L16.4805 147.26" stroke="#060606" stroke-opacity="0.3" stroke-miterlimit="10"/>
<path d="M4.57468 136.281L18.043 139.357" stroke="#060606" stroke-opacity="0.3" stroke-miterlimit="10"/>
<path d="M6.71994 127.787L20.0195 131.529" stroke="#060606" stroke-opacity="0.3" stroke-miterlimit="10"/>
<path d="M9.29045 119.402L22.3867 123.82" stroke="#060606" stroke-opacity="0.3" stroke-miterlimit="10"/>
<path d="M12.2934 111.159L25.1289 116.242" stroke="#060606" stroke-opacity="0.3" stroke-miterlimit="10"/>
<path d="M15.7025 103.082L28.2773 108.818" stroke="#060606" stroke-opacity="0.3" stroke-miterlimit="10"/>
<path d="M19.5204 95.1924L31.7773 101.559" stroke="#060606" stroke-opacity="0.3" stroke-miterlimit="10"/>
<path d="M23.7401 87.5043L35.6562 94.4883" stroke="#060606" stroke-opacity="0.3" stroke-miterlimit="10"/>
<path d="M28.3381 80.0387L39.8906 87.6172" stroke="#060606" stroke-opacity="0.3" stroke-miterlimit="10"/>
<path d="M33.3102 72.8194L44.4648 80.9805" stroke="#060606" stroke-opacity="0.3" stroke-miterlimit="10"/>
<path d="M38.6486 65.8694L49.3711 74.5781" stroke="#060606" stroke-opacity="0.3" stroke-miterlimit="10"/>
<path d="M44.3417 59.1891L54.5977 68.4336" stroke="#060606" stroke-opacity="0.3" stroke-miterlimit="10"/>
<path d="M50.3546 52.8093L60.1328 62.5664" stroke="#060606" stroke-opacity="0.3" stroke-miterlimit="10"/>
<path d="M56.687 46.7459L65.9531 56.9922" stroke="#060606" stroke-opacity="0.3" stroke-miterlimit="10"/>
<path d="M63.3232 41.02L72.0547 51.7207" stroke="#060606" stroke-opacity="0.3" stroke-miterlimit="10"/>
<path d="M70.2439 35.6298L78.418 46.7617" stroke="#060606" stroke-opacity="0.3" stroke-miterlimit="10"/>
<path d="M92.5176 21.6764L98.9062 33.9277" stroke="#060606" stroke-opacity="0.3" stroke-miterlimit="10"/>
<path d="M100.389 17.8044L106.141 30.3593" stroke="#060606" stroke-opacity="0.3" stroke-miterlimit="10"/>
<path d="M108.439 14.3384L113.543 27.1738" stroke="#060606" stroke-opacity="0.3" stroke-miterlimit="10"/>
<path d="M116.66 11.2781L121.105 24.3594" stroke="#060606" stroke-opacity="0.3" stroke-miterlimit="10"/>
<path d="M125.021 8.65462L128.797 21.9355" stroke="#060606" stroke-opacity="0.3" stroke-miterlimit="10"/>
<path d="M133.507 6.44885L136.602 19.9062" stroke="#060606" stroke-opacity="0.3" stroke-miterlimit="10"/>
<path d="M142.094 4.6801L144.496 18.2793" stroke="#060606" stroke-opacity="0.3" stroke-miterlimit="10"/>
<path d="M150.766 3.35219L152.465 17.0586" stroke="#060606" stroke-opacity="0.3" stroke-miterlimit="10"/>
<path d="M159.489 2.47082L160.496 16.25" stroke="#060606" stroke-opacity="0.3" stroke-miterlimit="10"/>
<path d="M168.242 2.02824L168.547 15.834" stroke="#060606" stroke-opacity="0.3" stroke-miterlimit="10"/>
<path d="M177.015 2.03556L176.606 15.8448" stroke="#060606" stroke-opacity="0.3" stroke-miterlimit="10"/>
<path d="M185.769 2.49199L184.658 16.2587" stroke="#060606" stroke-opacity="0.3" stroke-miterlimit="10"/>
<path d="M194.487 3.39696L192.686 17.0868" stroke="#060606" stroke-opacity="0.3" stroke-miterlimit="10"/>
<path d="M203.15 4.7371L200.66 18.3271" stroke="#060606" stroke-opacity="0.3" stroke-miterlimit="10"/>
<path d="M211.742 6.51584L208.551 19.9598" stroke="#060606" stroke-opacity="0.3" stroke-miterlimit="10"/>
<path d="M220.22 8.74099L216.353 21.9931" stroke="#060606" stroke-opacity="0.3" stroke-miterlimit="10"/>
<path d="M228.585 11.3781L224.041 24.4269" stroke="#060606" stroke-opacity="0.3" stroke-miterlimit="10"/>
<path d="M236.794 14.4538L231.596 27.2535" stroke="#060606" stroke-opacity="0.3" stroke-miterlimit="10"/>
<path d="M244.845 17.939L238.994 30.455" stroke="#060606" stroke-opacity="0.3" stroke-miterlimit="10"/>
<path d="M252.697 21.8279L246.228 34.0261" stroke="#060606" stroke-opacity="0.3" stroke-miterlimit="10"/>
<path d="M260.35 26.1051L253.263 37.9625" stroke="#060606" stroke-opacity="0.3" stroke-miterlimit="10"/>
<path d="M281.856 41.2201L273.044 51.8608" stroke="#060606" stroke-opacity="0.3" stroke-miterlimit="10"/>
<path d="M288.479 46.9578L279.144 57.1322" stroke="#060606" stroke-opacity="0.3" stroke-miterlimit="10"/>
<path d="M294.798 53.0389L284.962 62.7241" stroke="#060606" stroke-opacity="0.3" stroke-miterlimit="10"/>
<path d="M300.804 59.4262L290.478 68.5994" stroke="#060606" stroke-opacity="0.3" stroke-miterlimit="10"/>
<path d="M306.486 66.11L295.705 74.7485" stroke="#060606" stroke-opacity="0.3" stroke-miterlimit="10"/>
<path d="M311.807 73.0763L300.608 81.146" stroke="#060606" stroke-opacity="0.3" stroke-miterlimit="10"/>
<path d="M316.766 80.3042L305.17 87.7938" stroke="#060606" stroke-opacity="0.3" stroke-miterlimit="10"/>
<path d="M321.357 87.7701L309.387 94.6684" stroke="#060606" stroke-opacity="0.3" stroke-miterlimit="10"/>
<path d="M325.565 95.4717L313.257 101.745" stroke="#060606" stroke-opacity="0.3" stroke-miterlimit="10"/>
<path d="M329.366 103.367L316.755 109.015" stroke="#060606" stroke-opacity="0.3" stroke-miterlimit="10"/>
<path d="M332.761 111.45L319.881 116.439" stroke="#060606" stroke-opacity="0.3" stroke-miterlimit="10"/>
<path d="M335.742 119.704L322.627 124.022" stroke="#060606" stroke-opacity="0.3" stroke-miterlimit="10"/>
<path d="M338.305 128.09L324.979 131.739" stroke="#060606" stroke-opacity="0.3" stroke-miterlimit="10"/>
<path d="M340.434 136.586L326.943 139.565" stroke="#060606" stroke-opacity="0.3" stroke-miterlimit="10"/>
<path d="M342.117 145.193L328.496 147.479" stroke="#060606" stroke-opacity="0.3" stroke-miterlimit="10"/>
<path d="M343.367 153.875L329.651 155.459" stroke="#060606" stroke-opacity="0.3" stroke-miterlimit="10"/>
<path d="M344.18 162.599L330.39 163.491" stroke="#060606" stroke-opacity="0.3" stroke-miterlimit="10"/>
<path d="M12.6193 171.25C12.6193 171.892 12.4446 172.439 12.0952 172.891C11.7429 173.342 11.233 173.687 10.5653 173.926C9.89489 174.165 9.08523 174.284 8.13636 174.284C7.19318 174.284 6.38778 174.165 5.72017 173.926C5.04972 173.685 4.53835 173.338 4.18608 172.886C3.83097 172.432 3.65341 171.886 3.65341 171.25C3.65341 170.614 3.83097 170.07 4.18608 169.618C4.53835 169.163 5.04972 168.817 5.72017 168.578C6.38778 168.337 7.19318 168.216 8.13636 168.216C9.08523 168.216 9.89489 168.335 10.5653 168.574C11.233 168.812 11.7429 169.158 12.0952 169.609C12.4446 170.061 12.6193 170.608 12.6193 171.25ZM11.6818 171.25C11.6818 170.614 11.375 170.119 10.7614 169.767C10.1477 169.415 9.27273 169.239 8.13636 169.239C7.38068 169.239 6.73722 169.32 6.20597 169.482C5.67472 169.641 5.26989 169.871 4.99148 170.172C4.71307 170.47 4.57386 170.83 4.57386 171.25C4.57386 171.881 4.88494 172.374 5.5071 172.729C6.12642 173.084 7.00284 173.261 8.13636 173.261C8.89205 173.261 9.53409 173.182 10.0625 173.023C10.5909 172.864 10.9929 172.635 11.2685 172.337C11.544 172.036 11.6818 171.673 11.6818 171.25Z" fill="black"/>
<path d="M332.472 167.273V176H331.415V168.381H331.364L329.233 169.795V168.722L331.415 167.273H332.472ZM337.948 176.119C337.306 176.119 336.759 175.945 336.307 175.595C335.856 175.243 335.511 174.733 335.272 174.065C335.033 173.395 334.914 172.585 334.914 171.636C334.914 170.693 335.033 169.888 335.272 169.22C335.513 168.55 335.86 168.038 336.312 167.686C336.766 167.331 337.312 167.153 337.948 167.153C338.584 167.153 339.129 167.331 339.58 167.686C340.035 168.038 340.381 168.55 340.62 169.22C340.861 169.888 340.982 170.693 340.982 171.636C340.982 172.585 340.863 173.395 340.624 174.065C340.386 174.733 340.04 175.243 339.589 175.595C339.137 175.945 338.59 176.119 337.948 176.119ZM337.948 175.182C338.584 175.182 339.079 174.875 339.431 174.261C339.783 173.648 339.959 172.773 339.959 171.636C339.959 170.881 339.879 170.237 339.717 169.706C339.558 169.175 339.327 168.77 339.026 168.491C338.728 168.213 338.369 168.074 337.948 168.074C337.317 168.074 336.825 168.385 336.469 169.007C336.114 169.626 335.937 170.503 335.937 171.636C335.937 172.392 336.016 173.034 336.175 173.562C336.334 174.091 336.563 174.493 336.861 174.768C337.163 175.044 337.525 175.182 337.948 175.182ZM345.568 176.119C344.926 176.119 344.379 175.945 343.927 175.595C343.476 175.243 343.131 174.733 342.892 174.065C342.653 173.395 342.534 172.585 342.534 171.636C342.534 170.693 342.653 169.888 342.892 169.22C343.133 168.55 343.48 168.038 343.932 167.686C344.386 167.331 344.932 167.153 345.568 167.153C346.204 167.153 346.749 167.331 347.2 167.686C347.655 168.038 348.001 168.55 348.24 169.22C348.481 169.888 348.602 170.693 348.602 171.636C348.602 172.585 348.483 173.395 348.244 174.065C348.006 174.733 347.66 175.243 347.209 175.595C346.757 175.945 346.21 176.119 345.568 176.119ZM345.568 175.182C346.204 175.182 346.699 174.875 347.051 174.261C347.403 173.648 347.579 172.773 347.579 171.636C347.579 170.881 347.499 170.237 347.337 169.706C347.178 169.175 346.947 168.77 346.646 168.491C346.348 168.213 345.989 168.074 345.568 168.074C344.937 168.074 344.445 168.385 344.089 169.007C343.734 169.626 343.557 170.503 343.557 171.636C343.557 172.392 343.636 173.034 343.795 173.562C343.954 174.091 344.183 174.493 344.481 174.768C344.783 175.044 345.145 175.182 345.568 175.182Z" fill="black"/>
<path d="M82.4566 40.8195L82.0614 40.1621L82.9058 35.9753C83.0052 35.4846 83.0785 35.066 83.1254 34.7195C83.171 34.3706 83.1766 34.0657 83.1422 33.8045C83.1089 33.5395 83.0234 33.2926 82.8859 33.0637C82.7278 32.8007 82.5276 32.6111 82.2854 32.4949C82.0456 32.3772 81.7859 32.3311 81.5062 32.3566C81.2266 32.3822 80.9516 32.4762 80.6814 32.6387C80.3941 32.8114 80.1791 33.0218 80.0366 33.2699C79.895 33.5141 79.8294 33.7773 79.8399 34.0593C79.8528 34.34 79.9448 34.6227 80.1161 34.9076L79.2541 35.4257C78.9907 34.9874 78.8605 34.542 78.8635 34.0894C78.8666 33.6367 78.9866 33.2133 79.2235 32.8189C79.4629 32.4231 79.8005 32.0942 80.2364 31.8322C80.6747 31.5688 81.1186 31.4278 81.5683 31.4095C82.018 31.3911 82.4334 31.4811 82.8146 31.6796C83.1957 31.8781 83.5019 32.1696 83.7332 32.5544C83.8986 32.8295 84.0104 33.1286 84.0686 33.4515C84.1278 33.7706 84.1323 34.164 84.082 34.6318C84.0327 35.0957 83.9321 35.6865 83.7802 36.4043L83.1802 39.2111L83.2154 39.2695L86.6924 37.1795L87.1754 37.983L82.4566 40.8195ZM91.1856 35.7117C90.757 35.9693 90.3199 36.116 89.8741 36.152C89.4283 36.1879 89.0127 36.1195 88.6272 35.9469C88.2416 35.7742 87.925 35.5038 87.6772 35.1357L88.5537 34.6088C88.7913 34.9268 89.113 35.1146 89.5189 35.1722C89.9257 35.226 90.3203 35.138 90.7026 34.9082C91.0094 34.7238 91.2389 34.488 91.3912 34.2009C91.5459 33.9124 91.616 33.6017 91.6016 33.2689C91.5882 32.9323 91.4856 32.6045 91.2939 32.2855C91.0978 31.9592 90.851 31.7114 90.5537 31.5421C90.2573 31.3689 89.9403 31.2827 89.6027 31.2835C89.265 31.2842 88.936 31.3793 88.6156 31.5686C88.3852 31.7037 88.1715 31.8802 87.9743 32.0982C87.7757 32.3137 87.6322 32.5243 87.5437 32.73L86.6349 33.137L84.8748 29.1833L88.7608 26.8474L89.2438 27.6509L86.1174 29.5301L87.1805 31.8942L87.2243 31.8679C87.3046 31.6539 87.4362 31.4372 87.6192 31.2178C87.8022 30.9984 88.0191 30.8134 88.2699 30.6626C88.7277 30.3875 89.2014 30.2519 89.691 30.2559C90.1816 30.256 90.6426 30.3832 91.074 30.6377C91.5078 30.8907 91.8704 31.2595 92.1616 31.744C92.4485 32.2212 92.5975 32.7117 92.6086 33.2155C92.6207 33.7154 92.5056 34.1856 92.2634 34.6263C92.0196 35.0645 91.6604 35.4263 91.1856 35.7117Z" fill="black"/>
<path d="M263.581 41.2582C263.153 41.0007 262.818 40.6836 262.577 40.3068C262.336 39.93 262.201 39.5309 262.173 39.1095C262.144 38.688 262.234 38.2815 262.443 37.8899L263.32 38.4166C263.151 38.7756 263.136 39.1478 263.275 39.5333C263.419 39.9178 263.682 40.2249 264.064 40.4546C264.371 40.639 264.687 40.731 265.012 40.7307C265.339 40.7319 265.646 40.6481 265.933 40.4792C266.224 40.3093 266.466 40.0649 266.657 39.7459C266.853 39.4196 266.956 39.0854 266.966 38.7434C266.98 38.4004 266.908 38.0801 266.749 37.7823C266.589 37.4845 266.351 37.2385 266.033 37.0444C265.806 36.9044 265.55 36.7986 265.265 36.7268C264.981 36.6525 264.728 36.6246 264.505 36.643L263.719 36.0315L266.384 32.6217L270.271 34.957L269.788 35.7606L266.661 33.8818L265.072 35.93L265.116 35.9564C265.343 35.9268 265.596 35.9413 265.876 36C266.155 36.0586 266.42 36.1633 266.671 36.314C267.129 36.5891 267.471 36.9437 267.697 37.378C267.928 37.8113 268.032 38.2781 268.009 38.7784C267.989 39.2803 267.834 39.7735 267.543 40.258C267.256 40.7353 266.893 41.0971 266.453 41.3434C266.017 41.5886 265.548 41.7077 265.045 41.7006C264.544 41.691 264.056 41.5435 263.581 41.2582ZM270.044 45.1417C269.494 44.811 269.115 44.3796 268.908 43.8474C268.702 43.3128 268.669 42.6979 268.808 42.0027C268.949 41.3051 269.264 40.5497 269.752 39.7363C270.238 38.9279 270.755 38.299 271.304 37.8496C271.856 37.3993 272.416 37.1395 272.985 37.0702C273.558 36.9999 274.117 37.1286 274.662 37.4564C275.208 37.7841 275.582 38.2165 275.787 38.7536C275.995 39.2896 276.029 39.9065 275.888 40.6041C275.751 41.3007 275.44 42.0532 274.954 42.8617C274.465 43.675 273.946 44.3076 273.396 44.7594C272.848 45.2087 272.289 45.4681 271.721 45.5374C271.153 45.6042 270.595 45.4723 270.044 45.1417ZM270.527 44.3381C271.073 44.6658 271.654 44.6574 272.272 44.3129C272.89 43.9683 273.492 43.309 274.077 42.3349C274.466 41.6872 274.728 41.0939 274.863 40.5552C275 40.0179 275.012 39.5523 274.897 39.1586C274.785 38.7663 274.548 38.4619 274.188 38.2454C273.647 37.9205 273.065 37.9333 272.44 38.2837C271.816 38.6317 271.213 39.2915 270.629 40.2631C270.24 40.9108 269.977 41.5021 269.842 42.037C269.706 42.5719 269.695 43.0342 269.809 43.4241C269.925 43.8154 270.164 44.1201 270.527 44.3381Z" fill="black"/>
<g filter="url(#filter1_di_7_1852)">
<path d="M231.823 43.3905C233.165 40.385 231.821 36.8486 228.764 35.6277C207.522 27.1437 184.584 23.6544 161.728 25.4657C138.873 27.2771 116.771 34.3359 97.1301 46.06C94.3038 47.7471 93.533 51.4512 95.3318 54.2078C97.1306 56.9645 100.817 57.7288 103.65 56.0515C121.616 45.4112 141.802 39.0023 162.67 37.3485C183.538 35.6946 204.481 38.844 223.9 46.5214C226.961 47.7316 230.481 46.3961 231.823 43.3905Z" fill="#E5AE21"/>
</g>
<g filter="url(#filter2_di_7_1852)">
<path d="M313.785 146.063C317.013 145.42 319.121 142.278 318.35 139.078C312.972 116.772 302.508 95.9811 287.743 78.3472C272.979 60.7132 254.351 46.7576 233.337 37.5431C230.323 36.2212 226.859 37.7439 225.659 40.8089C224.459 43.8739 225.977 47.3195 228.987 48.6518C248.141 57.1305 265.123 69.8983 278.604 85.9994C292.085 102.1 301.669 121.062 306.649 141.408C307.432 144.606 310.557 146.706 313.785 146.063Z" fill="#E65F2B"/>
</g>
<defs>
<filter id="filter0_i_7_1852" x="24.6165" y="47.6039" width="77.4807" height="129.349" filterUnits="userSpaceOnUse" color-interpolation-filters="sRGB">
<feFlood flood-opacity="0" result="BackgroundImageFix"/>
<feBlend mode="normal" in="SourceGraphic" in2="BackgroundImageFix" result="shape"/>
<feColorMatrix in="SourceAlpha" type="matrix" values="0 0 0 0 0 0 0 0 0 0 0 0 0 0 0 0 0 0 127 0" result="hardAlpha"/>
<feOffset dy="3"/>
<feGaussianBlur stdDeviation="2"/>
<feComposite in2="hardAlpha" operator="arithmetic" k2="-1" k3="1"/>
<feColorMatrix type="matrix" values="0 0 0 0 1 0 0 0 0 1 0 0 0 0 1 0 0 0 0.45 0"/>
<feBlend mode="normal" in2="shape" result="effect1_innerShadow_7_1852"/>
</filter>
<filter id="filter1_di_7_1852" x="88.364" y="21" width="145.979" height="39.9348" filterUnits="userSpaceOnUse" color-interpolation-filters="sRGB">
<feFlood flood-opacity="0" result="BackgroundImageFix"/>
<feColorMatrix in="SourceAlpha" type="matrix" values="0 0 0 0 0 0 0 0 0 0 0 0 0 0 0 0 0 0 127 0" result="hardAlpha"/>
<feOffset dx="-2"/>
<feGaussianBlur stdDeviation="2"/>
<feComposite in2="hardAlpha" operator="out"/>
<feColorMatrix type="matrix" values="0 0 0 0 1 0 0 0 0 1 0 0 0 0 1 0 0 0 0.13 0"/>
<feBlend mode="normal" in2="BackgroundImageFix" result="effect1_dropShadow_7_1852"/>
<feBlend mode="normal" in="SourceGraphic" in2="effect1_dropShadow_7_1852" result="shape"/>
<feColorMatrix in="SourceAlpha" type="matrix" values="0 0 0 0 0 0 0 0 0 0 0 0 0 0 0 0 0 0 127 0" result="hardAlpha"/>
<feOffset dy="3"/>
<feGaussianBlur stdDeviation="2"/>
<feComposite in2="hardAlpha" operator="arithmetic" k2="-1" k3="1"/>
<feColorMatrix type="matrix" values="0 0 0 0 1 0 0 0 0 1 0 0 0 0 1 0 0 0 0.25 0"/>
<feBlend mode="normal" in2="shape" result="effect2_innerShadow_7_1852"/>
</filter>
<filter id="filter2_di_7_1852" x="219.247" y="33.0645" width="101.262" height="117.114" filterUnits="userSpaceOnUse" color-interpolation-filters="sRGB">
<feFlood flood-opacity="0" result="BackgroundImageFix"/>
<feColorMatrix in="SourceAlpha" type="matrix" values="0 0 0 0 0 0 0 0 0 0 0 0 0 0 0 0 0 0 127 0" result="hardAlpha"/>
<feOffset dx="-2"/>
<feGaussianBlur stdDeviation="2"/>
<feComposite in2="hardAlpha" operator="out"/>
<feColorMatrix type="matrix" values="0 0 0 0 1 0 0 0 0 1 0 0 0 0 1 0 0 0 0.13 0"/>
<feBlend mode="normal" in2="BackgroundImageFix" result="effect1_dropShadow_7_1852"/>
<feBlend mode="normal" in="SourceGraphic" in2="effect1_dropShadow_7_1852" result="shape"/>
<feColorMatrix in="SourceAlpha" type="matrix" values="0 0 0 0 0 0 0 0 0 0 0 0 0 0 0 0 0 0 127 0" result="hardAlpha"/>
<feOffset dy="3"/>
<feGaussianBlur stdDeviation="2"/>
<feComposite in2="hardAlpha" operator="arithmetic" k2="-1" k3="1"/>
<feColorMatrix type="matrix" values="0 0 0 0 1 0 0 0 0 1 0 0 0 0 1 0 0 0 0.25 0"/>
<feBlend mode="normal" in2="shape" result="effect2_innerShadow_7_1852"/>
</filter>
</defs>
</svg>
