<svg xmlns="http://www.w3.org/2000/svg" viewBox="0 0 55.84 71.28"><defs><style>.cls-1,.cls-4{fill:#00417b;}.cls-1{fill-rule:evenodd;}.cls-2{fill:#fff;}.cls-3{fill:#134279;}.cls-5{fill:#009951;}</style></defs><g id="Capa_2" data-name="Capa 2"><g id="Layer_1" data-name="Layer 1"><path class="cls-1" d="M12.22,64.52c0-1.28,1.18-.87,1.18-1.18,0-.12-.1-.14-.31-.14-.84,0-1.36,0-1.92,0s-.93,0-1.42,0c-.22,0-.5-.06-.5.12,0,.41,2.07.06,2.07,1.36v2.24c0,1.91-.44,3.7-3.8,3.7-3,0-3.69-1.44-3.69-3.17V65c0-1.86,1.42-1.26,1.42-1.65,0-.06,0-.15-.19-.15-.32,0-1.52,0-2.38,0s-2.11,0-2.33,0-.35,0-.35.18c0,.43,1.76.07,1.76,1V68.1c0,2.2,1.68,3.18,4.84,3.18,4.65,0,5.62-1.91,5.62-4.2Z"/><path class="cls-1" d="M20.5,69.72c0,1.35-1.91.81-1.91,1.25,0,.24.29.23.59.23.68,0,1.23,0,2.37,0s1.68,0,2.36,0c.49,0,.82,0,.82-.23s-2.15,0-2.15-1.38V64.48c0-.55.16-.61.86-.61h1.43c1.94,0,1.4,1.22,2.07,1.22.44,0,.26-.45.22-.58l-.18-1c0-.12,0-.27-.27-.27-1.57,0-2.7,0-5.16,0s-3.6,0-5.17,0c-.25,0-.25.15-.27.27L15.84,65c0,.15-.13.4.22.4.76,0,.25-1.49,2.16-1.49h1.42c.69,0,.86.06.86.61Z"/><path class="cls-1" d="M33.11,64.52c0-.78.07-.79,2.11-.79,3.25,0,1.94,1.32,2.73,1.32.39,0,.3-.37.29-.52l-.07-1.12c0-.1-.12-.21-.34-.21-1.48,0-2.65,0-3.84,0-2.59,0-3.8,0-4.49,0-.24,0-.37.09-.37.19,0,.45,1.9.09,1.9,1.11v5.29c0,1.38-1.28.77-1.28,1.29,0,.07.1.12.32.12.93,0,1.64,0,2.16,0,.85,0,1.86,0,4.42,0A2.18,2.18,0,0,0,39,69.39c0-.21-.12-.25-.19-.25-.64,0-.4,1.49-4.58,1.49-1.22,0-1.15-.41-1.15-1.11V68.07c0-.66-.07-.79.71-.79h1.25c1.75,0,1.28,1.2,1.82,1.2s.3-.41.29-.56l-.12-2c0-.3-.21-.28-.32-.28-.34,0-.39,1-1.84,1H33.83c-.72,0-.72-.08-.72-.57Z"/><path class="cls-1" d="M43.59,66.11c0-.08,0-.28.11-.28s.14.13.19.19l3.27,4.88c.09.12.17.31.42.31s.34-.17.44-.31l3.19-4.47c.26-.37.46-.6.52-.6s.12.17.14.51l.25,3.43c.1,1.25-1.21.88-1.21,1.26,0,.21.42.17.77.17s.8,0,1.89,0c.49,0,1,0,1.45,0s.82,0,.82-.19c0-.42-1.56.08-1.64-1.4l-.29-5c-.07-1.3,1.59-.86,1.59-1.27,0-.09,0-.13-.49-.13s-.79,0-1.1,0-.57,0-1,0-.37.14-.42.22L48.6,68.9s-.17.23-.27.23-.16-.08-.22-.18L44.4,63.52a.6.6,0,0,0-.6-.32c-.55,0-1.18,0-1.56,0-.54,0-.8,0-1,0a.2.2,0,0,0-.2.15c0,.5,1.81,0,1.71,1.84l-.24,4.54C42.42,70.92,41,70.64,41,71c0,.07.07.16.32.16s.84,0,1.67,0,1.13,0,1.74,0,.4-.13.4-.18c0-.46-1.85.19-1.75-1.74Z"/><path class="cls-2" d="M50.68.48H5.15V34.63h0a22.77,22.77,0,0,0,45.53,0h0Z"/><path class="cls-3" d="M27.92,57.88A23.28,23.28,0,0,1,4.67,34.63V0h46.5V34.63A23.28,23.28,0,0,1,27.92,57.88ZM5.64,1V34.63a22.28,22.28,0,0,0,44.56,0V1Z"/><path class="cls-4" d="M28,51.5V23.05H10.89V34.43A17.07,17.07,0,0,0,28,51.5h0Z"/><rect class="cls-5" x="27.99" y="5.97" width="17.07" height="17.07"/></g></g></svg>